 <svg version="1.1" xmlns="http://www.w3.org/2000/svg" xmlns:xlink="http://www.w3.org/1999/xlink" style="display: none;">
	<symbol id="menu" viewBox="0 0 20 14">
		<path d="M0 0h20v2H0zM0 6h20v2H0zM0 12h20v2H0z"/>
	</symbol>
	
	<symbol id="map" viewBox="0 0 35.711 25">
		<path d="M11.914 2.137L22.98 6.84l.775.33.777-.325 9.18-3.84V18.67l-9.945 4.16-10.984-4.67-.696-.296-.72.24L2 21.223V5.442l9.914-3.303M35.71 0L23.76 5 12 0 0 4v20l12-4 11.76 5 11.95-5V0z"/><path fill="none" stroke="#000" stroke-width="2" stroke-miterlimit="10" d="M11.94.515v18.683M23.69 5.348v18.684"/>
	</symbol>

	<symbol id="timing" viewBox="0 0 60 60"><path fill="#69A19A" d="M58 8.103V58H2V8.103h56m2-2H0V60h60V6.103z"/><path fill="#69A19A" d="M58 8.103V21H2V8.103h56m2-2H0V23h60V6.103z"/><path fill="none" stroke="#69A19A" stroke-width="2" stroke-miterlimit="10" d="M15.274 22.312v35.84M58.55 35.232H1.355M58.55 47.232H1.355M30.274 22.312v35.84M45.274 22.312v35.84M8.75 1.25v10.917M52.5 1.25v10.917"/></symbol>

	<symbol id="transportation" viewBox="0 0 48.001 57.416"><path fill="#69A19A" d="M38 2c2.346 0 4.674 1.95 5.086 4.258L44.98 16.86c.553 3.11 1.02 8.4 1.02 11.556V41c0 2.206-1.793 4-4 4H6c-2.206 0-4-1.794-4-4V27.916c0-3.154.48-8.44 1.044-11.543L4.89 6.26C5.312 3.953 7.652 2 10 2h28m0-2H10C6.7 0 3.515 2.656 2.923 5.902l-1.846 10.11C.485 19.26 0 24.617 0 27.917V41c0 3.3 2.7 6 6 6h36c3.3 0 6-2.7 6-6V28.416c0-3.3-.474-8.658-1.053-11.907L45.055 5.906C44.475 2.657 41.3 0 38 0z"/><path fill="#69A19A" d="M39.21 12.532l1.557 14.056H7.235l1.557-14.056H39.21m1.79-2H7L5 28.588h38l-2-18.056z"/><path fill="none" stroke="#69A19A" stroke-width="2" stroke-linecap="round" stroke-miterlimit="10" d="M15.667 33.254h16.666M12.167 6.17h23.666M15.667 36.865h16.666"/><ellipse fill="none" stroke="#69A19A" stroke-width="2" stroke-linecap="round" stroke-miterlimit="10" cx="8.175" cy="35.232" rx="2.808" ry="2.535"/><ellipse fill="none" stroke="#69A19A" stroke-width="2" stroke-linecap="round" stroke-miterlimit="10" cx="39.174" cy="35.232" rx="2.808" ry="2.535"/><path fill="#69A19A" d="M2.948 57.416L13.74 46.623l-1.413-1.414L.12 57.415M48 57.416L35.795 45.21l-1.414 1.413 10.793 10.793"/></symbol>

	<symbol id="weather" viewBox="0 0 59.048 51.089"><path fill="none" stroke="#68A199" stroke-width="2" stroke-miterlimit="10" d="M28.29 16.967c1.69-3.943 5.607-6.706 10.17-6.706 6.108 0 11.06 4.953 11.06 11.06 0 3.95-2.068 7.416-5.183 9.373"/><path fill="none" stroke="#68A199" stroke-width="2" stroke-linecap="round" stroke-miterlimit="10" d="M38.46 1v5.113M58.048 20.547h-5.112M52.096 5.596L48.81 9.512M25.45 5.596l3.286 3.916"/><path fill="#68A199" d="M30.117 17.958c5.956 0 10.802 4.845 10.8 10.797-.005.073-.01.146-.01.22l-.03 1.342 1.227.536c3.47 1.518 5.71 4.94 5.71 8.72 0 4.95-3.715 9.022-8.642 9.47l-.5.047h-28.15C5.823 49.09 2 45.266 2 40.566c0-4.383 3.282-8.026 7.635-8.476l1.794-.186V30.1c0-.036-.002-.07-.003-.107.026-2.354 1.95-4.26 4.308-4.26.57 0 1.128.11 1.656.33l1.907.796.733-1.93c1.584-4.17 5.638-6.972 10.087-6.972m0-2c-5.467 0-10.123 3.436-11.957 8.26-.747-.31-1.565-.484-2.425-.484-3.484 0-6.31 2.825-6.31 6.31 0 .02.004.038.004.058C4.13 30.648 0 35.124 0 40.566 0 46.378 4.71 51.09 10.522 51.09h28.83v-.055c5.866-.534 10.462-5.458 10.462-11.462 0-4.722-2.843-8.774-6.91-10.553.003-.088.015-.173.015-.262-.002-7.07-5.733-12.8-12.803-12.8z"/></symbol>

	<symbol id="knowledge" viewBox="0 0 46.166 47.322"><path fill="none" stroke="#68A199" stroke-width="2" stroke-miterlimit="10" d="M23.097 9.712C16.562 9.704 11.26 14.995 11.25 21.53c0 1.794.418 3.573 1.196 5.188.36.747.8 1.516 1.348 2.14 1.464 1.667 2.29 3.535 2.345 5.707.027 1.11-.48 2.844.802 2.845l6.122.008 6.124.008c1.28 0 .777-1.733.81-2.844.06-2.17.89-4.037 2.357-5.7.55-.624.992-1.393 1.354-2.137.78-1.614 1.203-3.39 1.207-5.186.007-6.537-5.284-11.84-11.82-11.848z"/><path fill="#68A199" d="M30.492 40.562c0 .502-.405.908-.907.908H16.58c-.5 0-.906-.406-.906-.908s.406-.907.907-.907h13.005c.502 0 .907.405.907.907zM30.492 43.555c0 .5-.405.907-.907.907H16.58c-.5 0-.906-.406-.906-.907 0-.503.406-.91.907-.91h13.005c.502 0 .907.407.907.91zM27.434 46.546c0 .428-.35.775-.777.775H19.51c-.43 0-.775-.347-.775-.774 0-.43.347-.776.775-.776h7.147c.428 0 .777.348.777.776z"/><path fill="none" stroke="#68A199" stroke-width="2" stroke-linecap="round" stroke-miterlimit="10" d="M23.083 1v4.688M1 23.083h4.688M40.478 23.083h4.688M37.218 10.923l3.314-3.314M9.938 10.923L6.623 7.61"/></symbol>

	<symbol id="language" viewBox="0 0 48 48"><path fill="#68A199" d="M24 2c12.13 0 22 9.87 22 22s-9.87 22-22 22S2 36.13 2 24 11.87 2 24 2m0-2C10.744 0 0 10.745 0 24s10.744 24 24 24 24-10.744 24-24S37.256 0 24 0z"/><path fill="#68A199" d="M24 2c2.373 0 4.813 2.16 6.696 5.924C32.826 12.184 34 17.894 34 24s-1.173 11.815-3.304 16.076C28.813 43.84 26.373 46 24 46s-4.813-2.16-6.696-5.923C15.174 35.817 14 30.107 14 24s1.173-11.816 3.304-16.077C19.187 4.16 21.627 2 24 2m0-2c-6.627 0-12 10.745-12 24s5.373 24 12 24 12-10.744 12-24S30.627 0 24 0z"/><path fill="none" stroke="#68A199" stroke-width="2" stroke-miterlimit="10" d="M42.043 8.593c-4.28 2.635-10.815 4.318-18.133 4.318-7.217 0-13.67-1.636-17.953-4.207M0 24h48M24 0v48M5.957 39c4.28-2.635 10.815-4.318 18.133-4.318 7.217 0 13.67 1.637 17.953 4.208"/></symbol>

	<symbol id="electric" viewBox="0 0 50 50"><path fill="none" stroke="#68A199" stroke-width="2" stroke-linecap="round" stroke-miterlimit="10" d="M27.708 41.4V49h-3.833v-7.518M15.432 14.333v-11.3c0-1.122.91-2.033 2.034-2.033s2.034.91 2.034 2.034V14.17"/><path fill="none" stroke="#68A199" stroke-width="2" stroke-linecap="round" stroke-miterlimit="10" d="M15.432 14.688V3.034c0-1.123.91-2.034 2.034-2.034s2.034.91 2.034 2.034V14.77M32.432 14.28V3.033c0-1.124.91-2.034 2.034-2.034s2.034.91 2.034 2.034v11.164"/><path fill="none" stroke="#68A199" stroke-width="2" stroke-miterlimit="10" d="M41.422 26.034c0 8.635-6.997 15.633-15.633 15.633-8.632 0-15.628-6.998-15.628-15.633V14.75h31.26v11.284z"/></symbol>

	<symbol id="currency" viewBox="0 0 24.872 47.87">
		<path fill="#67A19A" d="M4.085 39.935C2.055 38.46.695 36.475 0 33.977l2.758-.988c.694 2.15 1.917 3.832 3.668 5.046 1.75 1.214 3.928 1.82 6.53 1.82 1.248 0 2.42-.164 3.512-.493 1.093-.33 2.038-.807 2.836-1.432.798-.623 1.422-1.386 1.873-2.288.45-.9.677-1.908.677-3.018 0-2.15-.538-3.746-1.613-4.787s-2.444-1.804-4.11-2.29l-6.867-2.133c-2.498-.798-4.362-1.908-5.594-3.33S1.82 16.754 1.82 14.36c0-1.283.243-2.463.73-3.538s1.152-2.02 2.002-2.836c.85-.815 1.864-1.474 3.044-1.977 1.18-.504 2.462-.808 3.85-.912V0h2.81v5.1c2.22.207 4.17.832 5.854 1.872 1.683 1.04 2.975 2.584 3.876 4.63l-2.55 1.094c-.797-1.63-1.925-2.88-3.382-3.746s-3.243-1.3-5.36-1.3c-1.005 0-1.976.13-2.913.39s-1.787.65-2.55 1.17c-.763.52-1.37 1.188-1.82 2.003-.452.815-.677 1.76-.677 2.836 0 1.56.442 2.87 1.327 3.927.884 1.058 2.472 1.95 4.76 2.68l6.87 2.237c1.04.312 1.994.703 2.86 1.17s1.622 1.068 2.265 1.796c.642.73 1.145 1.613 1.51 2.654.363 1.04.545 2.29.545 3.746 0 1.388-.25 2.67-.754 3.85-.505 1.18-1.216 2.212-2.135 3.097s-2.038 1.604-3.356 2.16c-1.318.554-2.775.9-4.37 1.04v5.463h-2.81v-5.41c-2.882-.21-5.336-1.05-7.365-2.525z"/>
	</symbol>	

	<symbol id="arrow" viewBox="0 0 20 26">
		<title>Back to top</title><g stroke-width="2" stroke="#68A19A" fill="none" fill-rule="evenodd"><path d="M9.88 3.616v22M.93 11.185l8.96-8.96 8.936 8.935"/></g>
	</symbol>

	<symbol id="close-btn" viewBox="0 0 18.385 18.385"><path fill-rule="evenodd" clip-rule="evenodd" d="M18.385 1.414L16.97 0 9.193 7.778 1.414 0 0 1.414l7.778 7.778L0 16.972l1.414 1.413 7.778-7.78 7.78 7.78 1.413-1.414-7.78-7.778"/></symbol>
 </svg>



 